<svg xmlns="http://www.w3.org/2000/svg" id="Layer_1" viewBox="0 0 532.00684 133.02533"><defs><style>.cls-1{fill:none;}.cls-1,.cls-2,.cls-3{stroke-width:0px;}.cls-3{fill:#0049ff;}</style></defs><path class="cls-1" d="m263.17908,50.2843c-1.4975-1.09399-4.66528-1.6413-9.50336-1.6413-4.7804,0-7.8905.5473-9.33032,1.6413-1.78564,1.38214-2.7359,4.34875-2.85095,8.89868v14.60004c.11505,4.60791,1.06531,7.57391,2.85095,8.89868,1.43982,1.15198,4.54993,1.72766,9.33032,1.72766,4.83807,0,8.00586-.57568,9.50336-1.72766,1.7854-1.32477,2.67822-4.29077,2.67822-8.89868v-14.60004c0-4.54993-.89282-7.51654-2.67822-8.89868Z"></path><path class="cls-2" d="m201.19641,98.83722c3.85889-.63367,7.08435-2.01581,9.67615-4.14697,2.64923-2.1886,4.3772-4.98187,5.18359-8.37982.34552-1.38275.57599-2.99506.6911-4.83807.05768-1.20941.08636-2.93762.08636-5.18365v-1.90045h-17.79681v1.90045c0,3.51337-.86414,5.81732-2.5918,6.91132-1.32477.80646-4.00293,1.20935-8.03455,1.20935-4.83807,0-7.91949-1.03656-9.24426-3.1098-.69104-.97919-1.12299-2.36133-1.29578-4.14697-.17273-1.26678-.25909-3.31158-.25909-6.13385v-10.10809c0-4.89545.57599-8.09222,1.72766-9.58972,1.32471-1.7851,4.34845-2.67792,9.07147-2.67792,3.45563,0,5.87463.31653,7.25677.9502,1.90076.86383,2.99506,2.62054,3.2829,5.27002v2.50513h17.79712v-2.50513c-.17279-9.09991-2.39038-15.06097-6.65216-17.88324-2.01611-1.38214-4.75171-2.30389-8.20734-2.76483-2.70715-.40295-6.56604-.60468-11.57684-.60468-5.24103,0-9.50311.25916-12.78601.77747-3.91656.69104-7.11304,1.84302-9.58972,3.45593-5.41382,3.57068-8.12097,10.3382-8.12097,20.30249v16.76019c0,5.7019.74872,10.30927,2.24628,13.82257,1.43982,3.22522,3.57098,5.67352,6.39294,7.34326,2.47675,1.44006,5.70221,2.39032,9.67615,2.8512,1.67029.23016,3.59973.37457,5.78833.43195,1.61261.05737,3.74377.08636,6.39301.08636h2.76453c1.03693,0,1.95844-.02899,2.76459-.08636,2.07349-.05737,3.85889-.23016,5.35638-.51831Z"></path><path class="cls-2" d="m275.27399,38.0166c-2.53412-1.61285-5.7019-2.79327-9.50336-3.5423-3.2829-.57568-7.31451-.86383-12.09491-.86383s-8.81201.28815-12.09491.86383c-3.80145.74847-6.96899,1.92944-9.50336,3.5423-5.58655,3.62872-8.38013,10.0791-8.38013,19.35175v18.31567c0,9.27264,2.79358,15.72363,8.38013,19.35175,2.53436,1.61285,5.7019,2.79327,9.50336,3.5423,3.2829.57568,7.31451.86383,12.09491.86383s8.81201-.28815,12.09491-.86383c3.80145-.74902,6.96924-1.92944,9.50336-3.5423,5.58685-3.62811,8.38013-10.0791,8.38013-19.35175v-18.31567c0-9.27264-2.79327-15.72302-8.38013-19.35175Zm-9.41669,35.76642c0,4.60791-.89282,7.57391-2.67822,8.89868-1.4975,1.15198-4.66528,1.72766-9.50336,1.72766-4.7804,0-7.8905-.57568-9.33032-1.72766-1.78564-1.32477-2.7359-4.29077-2.85095-8.89868v-14.60004c.11505-4.54993,1.06531-7.51654,2.85095-8.89868,1.43982-1.09399,4.54993-1.6413,9.33032-1.6413,4.83807,0,8.00586.5473,9.50336,1.6413,1.7854,1.38214,2.67822,4.34875,2.67822,8.89868v14.60004Z"></path><polygon class="cls-2" points="363.44897 34.12878 335.37109 34.12878 327.9118 53.79462 327.30713 53.79462 319.21112 34.12878 291.82458 34.12878 291.82458 98.92358 309.10309 98.92358 309.12207 52.6886 309.64038 52.6886 323.1344 80.93207 332.83966 80.93207 345.54651 52.6886 346.15118 52.6886 346.17023 98.92358 363.44897 98.92358 363.44897 34.12878"></polygon><polygon class="cls-2" points="422.94373 34.12878 371.62622 34.12878 371.62622 49.16132 388.21362 49.16132 388.21362 98.92358 405.49213 98.92358 405.49213 49.16132 422.94373 49.16132 422.94373 34.12878"></polygon><polygon class="cls-2" points="478.14203 84.75494 448.07721 84.75494 448.07721 72.14172 475.72296 72.14172 475.72296 60.13318 448.07721 60.13318 448.07721 48.29742 477.53729 48.29742 477.53729 34.12878 430.79871 34.12878 430.79871 98.92358 478.14203 98.92358 478.14203 84.75494"></polygon><polygon class="cls-2" points="532.00684 83.89105 504.96576 83.89105 504.96576 34.12878 487.68726 34.12878 487.68726 98.92358 532.00684 98.92358 532.00684 83.89105"></polygon><polygon class="cls-3" points="81.92456 69.19678 88.25616 82.77637 64.98224 93.6319 44.77289 50.30731 68.05292 39.45178 74.38446 53.03143 74.38599 53.0304 74.36316 52.9812 106.41699 33.66565 106.43927 33.71338 106.44055 33.71271 90.72125 0 0 42.30402 42.30396 133.02533 42.30402 133.02533 133.02533 90.72131 117.32501 57.05786 81.92456 69.19678"></polygon></svg>